<svg xmlns="http://www.w3.org/2000/svg" xmlns:xlink="http://www.w3.org/1999/xlink" width="192" zoomAndPan="magnify" viewBox="0 0 144 143.999998" height="192" preserveAspectRatio="xMidYMid meet" version="1.0"><defs><g/><clipPath id="f81b0939b3"><path d="M 144.332031 22.5 L 144.332031 121.5 C 144.332031 133.925781 134.257812 144 121.832031 144 L 22.5 144 C 10.074219 144 0 133.925781 0 121.5 L 0 22.5 C 0 10.074219 10.074219 0 22.5 0 L 121.832031 0 C 134.257812 0 144.332031 10.074219 144.332031 22.5 Z M 144.332031 22.5 " clip-rule="nonzero"/></clipPath><clipPath id="6a54a0ac01"><path d="M 0 0 L 144 0 L 144 144 L 0 144 Z M 0 0 " clip-rule="nonzero"/></clipPath><clipPath id="59e55d8e76"><path d="M 144.332031 22.5 L 144.332031 121.5 C 144.332031 133.925781 134.257812 144 121.832031 144 L 22.5 144 C 10.074219 144 0 133.925781 0 121.5 L 0 22.5 C 0 10.074219 10.074219 0 22.5 0 L 121.832031 0 C 134.257812 0 144.332031 10.074219 144.332031 22.5 Z M 144.332031 22.5 " clip-rule="nonzero"/></clipPath><linearGradient x1="128.294006" gradientTransform="matrix(0.5625, 0, 0, 0.5625, -0.00277966, 0.000002)" y1="-0" x2="128.294006" gradientUnits="userSpaceOnUse" y2="256" id="beff3129f9"><stop stop-opacity="1" stop-color="rgb(36.468506%, 87.838745%, 90.19928%)" offset="0"/><stop stop-opacity="1" stop-color="rgb(36.326599%, 87.608337%, 90.110779%)" offset="0.00390625"/><stop stop-opacity="1" stop-color="rgb(36.184692%, 87.379456%, 90.023804%)" offset="0.0078125"/><stop stop-opacity="1" stop-color="rgb(36.04126%, 87.149048%, 89.936829%)" offset="0.0117188"/><stop stop-opacity="1" stop-color="rgb(35.899353%, 86.920166%, 89.849854%)" offset="0.015625"/><stop stop-opacity="1" stop-color="rgb(35.75592%, 86.689758%, 89.762878%)" offset="0.0195313"/><stop stop-opacity="1" stop-color="rgb(35.614014%, 86.460876%, 89.675903%)" offset="0.0234375"/><stop stop-opacity="1" stop-color="rgb(35.472107%, 86.230469%, 89.587402%)" offset="0.0273438"/><stop stop-opacity="1" stop-color="rgb(35.3302%, 86.001587%, 89.500427%)" offset="0.03125"/><stop stop-opacity="1" stop-color="rgb(35.186768%, 85.771179%, 89.413452%)" offset="0.0351563"/><stop stop-opacity="1" stop-color="rgb(35.044861%, 85.542297%, 89.326477%)" offset="0.0390625"/><stop stop-opacity="1" stop-color="rgb(34.901428%, 85.31189%, 89.237976%)" offset="0.0429688"/><stop stop-opacity="1" stop-color="rgb(34.759521%, 85.081482%, 89.151001%)" offset="0.046875"/><stop stop-opacity="1" stop-color="rgb(34.616089%, 84.851074%, 89.064026%)" offset="0.0507812"/><stop stop-opacity="1" stop-color="rgb(34.474182%, 84.622192%, 88.977051%)" offset="0.0546875"/><stop stop-opacity="1" stop-color="rgb(34.332275%, 84.391785%, 88.88855%)" offset="0.0585938"/><stop stop-opacity="1" stop-color="rgb(34.190369%, 84.162903%, 88.801575%)" offset="0.0625"/><stop stop-opacity="1" stop-color="rgb(34.046936%, 83.932495%, 88.7146%)" offset="0.0664063"/><stop stop-opacity="1" stop-color="rgb(33.905029%, 83.703613%, 88.627625%)" offset="0.0703125"/><stop stop-opacity="1" stop-color="rgb(33.761597%, 83.473206%, 88.539124%)" offset="0.0742188"/><stop stop-opacity="1" stop-color="rgb(33.61969%, 83.244324%, 88.452148%)" offset="0.078125"/><stop stop-opacity="1" stop-color="rgb(33.476257%, 83.013916%, 88.365173%)" offset="0.0820313"/><stop stop-opacity="1" stop-color="rgb(33.334351%, 82.785034%, 88.278198%)" offset="0.0859375"/><stop stop-opacity="1" stop-color="rgb(33.192444%, 82.554626%, 88.189697%)" offset="0.0898438"/><stop stop-opacity="1" stop-color="rgb(33.050537%, 82.324219%, 88.102722%)" offset="0.09375"/><stop stop-opacity="1" stop-color="rgb(32.907104%, 82.093811%, 88.015747%)" offset="0.0976562"/><stop stop-opacity="1" stop-color="rgb(32.765198%, 81.864929%, 87.928772%)" offset="0.101562"/><stop stop-opacity="1" stop-color="rgb(32.621765%, 81.634521%, 87.840271%)" offset="0.105469"/><stop stop-opacity="1" stop-color="rgb(32.479858%, 81.40564%, 87.753296%)" offset="0.109375"/><stop stop-opacity="1" stop-color="rgb(32.337952%, 81.175232%, 87.666321%)" offset="0.113281"/><stop stop-opacity="1" stop-color="rgb(32.196045%, 80.94635%, 87.579346%)" offset="0.117188"/><stop stop-opacity="1" stop-color="rgb(32.052612%, 80.715942%, 87.490845%)" offset="0.121094"/><stop stop-opacity="1" stop-color="rgb(31.910706%, 80.487061%, 87.40387%)" offset="0.125"/><stop stop-opacity="1" stop-color="rgb(31.767273%, 80.256653%, 87.316895%)" offset="0.128906"/><stop stop-opacity="1" stop-color="rgb(31.625366%, 80.027771%, 87.229919%)" offset="0.132813"/><stop stop-opacity="1" stop-color="rgb(31.481934%, 79.797363%, 87.141418%)" offset="0.136719"/><stop stop-opacity="1" stop-color="rgb(31.340027%, 79.566956%, 87.054443%)" offset="0.140625"/><stop stop-opacity="1" stop-color="rgb(31.19812%, 79.336548%, 86.967468%)" offset="0.144531"/><stop stop-opacity="1" stop-color="rgb(31.056213%, 79.107666%, 86.880493%)" offset="0.148438"/><stop stop-opacity="1" stop-color="rgb(30.912781%, 78.877258%, 86.791992%)" offset="0.152344"/><stop stop-opacity="1" stop-color="rgb(30.770874%, 78.648376%, 86.705017%)" offset="0.15625"/><stop stop-opacity="1" stop-color="rgb(30.627441%, 78.417969%, 86.618042%)" offset="0.160156"/><stop stop-opacity="1" stop-color="rgb(30.485535%, 78.189087%, 86.531067%)" offset="0.164063"/><stop stop-opacity="1" stop-color="rgb(30.342102%, 77.958679%, 86.442566%)" offset="0.167969"/><stop stop-opacity="1" stop-color="rgb(30.200195%, 77.729797%, 86.355591%)" offset="0.171875"/><stop stop-opacity="1" stop-color="rgb(30.058289%, 77.49939%, 86.268616%)" offset="0.175781"/><stop stop-opacity="1" stop-color="rgb(29.916382%, 77.270508%, 86.181641%)" offset="0.179688"/><stop stop-opacity="1" stop-color="rgb(29.772949%, 77.0401%, 86.09314%)" offset="0.183594"/><stop stop-opacity="1" stop-color="rgb(29.631042%, 76.811218%, 86.006165%)" offset="0.1875"/><stop stop-opacity="1" stop-color="rgb(29.48761%, 76.580811%, 85.919189%)" offset="0.191406"/><stop stop-opacity="1" stop-color="rgb(29.345703%, 76.350403%, 85.832214%)" offset="0.195312"/><stop stop-opacity="1" stop-color="rgb(29.203796%, 76.119995%, 85.743713%)" offset="0.199219"/><stop stop-opacity="1" stop-color="rgb(29.06189%, 75.891113%, 85.656738%)" offset="0.203125"/><stop stop-opacity="1" stop-color="rgb(28.918457%, 75.660706%, 85.569763%)" offset="0.207031"/><stop stop-opacity="1" stop-color="rgb(28.77655%, 75.431824%, 85.482788%)" offset="0.210938"/><stop stop-opacity="1" stop-color="rgb(28.633118%, 75.201416%, 85.394287%)" offset="0.214844"/><stop stop-opacity="1" stop-color="rgb(28.491211%, 74.972534%, 85.307312%)" offset="0.21875"/><stop stop-opacity="1" stop-color="rgb(28.347778%, 74.742126%, 85.220337%)" offset="0.222656"/><stop stop-opacity="1" stop-color="rgb(28.205872%, 74.513245%, 85.133362%)" offset="0.226562"/><stop stop-opacity="1" stop-color="rgb(28.063965%, 74.282837%, 85.044861%)" offset="0.230469"/><stop stop-opacity="1" stop-color="rgb(27.922058%, 74.053955%, 84.957886%)" offset="0.234375"/><stop stop-opacity="1" stop-color="rgb(27.778625%, 73.823547%, 84.870911%)" offset="0.238281"/><stop stop-opacity="1" stop-color="rgb(27.636719%, 73.59314%, 84.783936%)" offset="0.242188"/><stop stop-opacity="1" stop-color="rgb(27.493286%, 73.362732%, 84.69696%)" offset="0.246094"/><stop stop-opacity="1" stop-color="rgb(27.351379%, 73.13385%, 84.609985%)" offset="0.25"/><stop stop-opacity="1" stop-color="rgb(27.209473%, 72.903442%, 84.521484%)" offset="0.253906"/><stop stop-opacity="1" stop-color="rgb(27.067566%, 72.674561%, 84.434509%)" offset="0.257813"/><stop stop-opacity="1" stop-color="rgb(26.924133%, 72.444153%, 84.347534%)" offset="0.261719"/><stop stop-opacity="1" stop-color="rgb(26.782227%, 72.215271%, 84.260559%)" offset="0.265625"/><stop stop-opacity="1" stop-color="rgb(26.638794%, 71.984863%, 84.172058%)" offset="0.269531"/><stop stop-opacity="1" stop-color="rgb(26.496887%, 71.755981%, 84.085083%)" offset="0.273438"/><stop stop-opacity="1" stop-color="rgb(26.353455%, 71.525574%, 83.998108%)" offset="0.277344"/><stop stop-opacity="1" stop-color="rgb(26.211548%, 71.296692%, 83.911133%)" offset="0.28125"/><stop stop-opacity="1" stop-color="rgb(26.069641%, 71.066284%, 83.822632%)" offset="0.285156"/><stop stop-opacity="1" stop-color="rgb(25.927734%, 70.835876%, 83.735657%)" offset="0.289063"/><stop stop-opacity="1" stop-color="rgb(25.784302%, 70.605469%, 83.648682%)" offset="0.292969"/><stop stop-opacity="1" stop-color="rgb(25.642395%, 70.376587%, 83.561707%)" offset="0.296875"/><stop stop-opacity="1" stop-color="rgb(25.498962%, 70.146179%, 83.473206%)" offset="0.300781"/><stop stop-opacity="1" stop-color="rgb(25.357056%, 69.917297%, 83.38623%)" offset="0.304688"/><stop stop-opacity="1" stop-color="rgb(25.213623%, 69.68689%, 83.299255%)" offset="0.308594"/><stop stop-opacity="1" stop-color="rgb(25.071716%, 69.458008%, 83.21228%)" offset="0.3125"/><stop stop-opacity="1" stop-color="rgb(24.92981%, 69.2276%, 83.123779%)" offset="0.316406"/><stop stop-opacity="1" stop-color="rgb(24.787903%, 68.998718%, 83.036804%)" offset="0.320313"/><stop stop-opacity="1" stop-color="rgb(24.64447%, 68.768311%, 82.949829%)" offset="0.324219"/><stop stop-opacity="1" stop-color="rgb(24.502563%, 68.539429%, 82.862854%)" offset="0.328125"/><stop stop-opacity="1" stop-color="rgb(24.359131%, 68.309021%, 82.774353%)" offset="0.332031"/><stop stop-opacity="1" stop-color="rgb(24.217224%, 68.080139%, 82.687378%)" offset="0.335938"/><stop stop-opacity="1" stop-color="rgb(24.075317%, 67.849731%, 82.600403%)" offset="0.339844"/><stop stop-opacity="1" stop-color="rgb(23.933411%, 67.619324%, 82.513428%)" offset="0.34375"/><stop stop-opacity="1" stop-color="rgb(23.789978%, 67.388916%, 82.424927%)" offset="0.347656"/><stop stop-opacity="1" stop-color="rgb(23.648071%, 67.160034%, 82.337952%)" offset="0.351563"/><stop stop-opacity="1" stop-color="rgb(23.504639%, 66.929626%, 82.250977%)" offset="0.355469"/><stop stop-opacity="1" stop-color="rgb(23.362732%, 66.700745%, 82.164001%)" offset="0.359375"/><stop stop-opacity="1" stop-color="rgb(23.219299%, 66.470337%, 82.0755%)" offset="0.363281"/><stop stop-opacity="1" stop-color="rgb(23.077393%, 66.241455%, 81.988525%)" offset="0.367188"/><stop stop-opacity="1" stop-color="rgb(22.935486%, 66.011047%, 81.90155%)" offset="0.371094"/><stop stop-opacity="1" stop-color="rgb(22.793579%, 65.782166%, 81.814575%)" offset="0.375"/><stop stop-opacity="1" stop-color="rgb(22.650146%, 65.551758%, 81.726074%)" offset="0.378906"/><stop stop-opacity="1" stop-color="rgb(22.50824%, 65.322876%, 81.639099%)" offset="0.382812"/><stop stop-opacity="1" stop-color="rgb(22.364807%, 65.092468%, 81.552124%)" offset="0.386719"/><stop stop-opacity="1" stop-color="rgb(22.2229%, 64.862061%, 81.465149%)" offset="0.390625"/><stop stop-opacity="1" stop-color="rgb(22.079468%, 64.631653%, 81.376648%)" offset="0.394531"/><stop stop-opacity="1" stop-color="rgb(21.937561%, 64.402771%, 81.289673%)" offset="0.398438"/><stop stop-opacity="1" stop-color="rgb(21.795654%, 64.172363%, 81.202698%)" offset="0.402344"/><stop stop-opacity="1" stop-color="rgb(21.653748%, 63.943481%, 81.115723%)" offset="0.40625"/><stop stop-opacity="1" stop-color="rgb(21.510315%, 63.713074%, 81.027222%)" offset="0.410156"/><stop stop-opacity="1" stop-color="rgb(21.368408%, 63.484192%, 80.940247%)" offset="0.414062"/><stop stop-opacity="1" stop-color="rgb(21.224976%, 63.253784%, 80.853271%)" offset="0.417969"/><stop stop-opacity="1" stop-color="rgb(21.083069%, 63.024902%, 80.766296%)" offset="0.421875"/><stop stop-opacity="1" stop-color="rgb(20.941162%, 62.794495%, 80.677795%)" offset="0.425781"/><stop stop-opacity="1" stop-color="rgb(20.799255%, 62.565613%, 80.59082%)" offset="0.429688"/><stop stop-opacity="1" stop-color="rgb(20.655823%, 62.335205%, 80.503845%)" offset="0.433594"/><stop stop-opacity="1" stop-color="rgb(20.513916%, 62.104797%, 80.41687%)" offset="0.4375"/><stop stop-opacity="1" stop-color="rgb(20.370483%, 61.87439%, 80.328369%)" offset="0.441406"/><stop stop-opacity="1" stop-color="rgb(20.228577%, 61.645508%, 80.241394%)" offset="0.445312"/><stop stop-opacity="1" stop-color="rgb(20.085144%, 61.4151%, 80.154419%)" offset="0.449219"/><stop stop-opacity="1" stop-color="rgb(19.943237%, 61.186218%, 80.067444%)" offset="0.453125"/><stop stop-opacity="1" stop-color="rgb(19.801331%, 60.955811%, 79.978943%)" offset="0.457031"/><stop stop-opacity="1" stop-color="rgb(19.659424%, 60.726929%, 79.891968%)" offset="0.460938"/><stop stop-opacity="1" stop-color="rgb(19.515991%, 60.496521%, 79.804993%)" offset="0.464844"/><stop stop-opacity="1" stop-color="rgb(19.374084%, 60.267639%, 79.718018%)" offset="0.46875"/><stop stop-opacity="1" stop-color="rgb(19.230652%, 60.037231%, 79.629517%)" offset="0.472656"/><stop stop-opacity="1" stop-color="rgb(19.088745%, 59.80835%, 79.542542%)" offset="0.476562"/><stop stop-opacity="1" stop-color="rgb(18.945312%, 59.577942%, 79.455566%)" offset="0.480469"/><stop stop-opacity="1" stop-color="rgb(18.803406%, 59.34906%, 79.368591%)" offset="0.484375"/><stop stop-opacity="1" stop-color="rgb(18.661499%, 59.118652%, 79.281616%)" offset="0.488281"/><stop stop-opacity="1" stop-color="rgb(18.519592%, 58.888245%, 79.194641%)" offset="0.492188"/><stop stop-opacity="1" stop-color="rgb(18.37616%, 58.657837%, 79.10614%)" offset="0.496094"/><stop stop-opacity="1" stop-color="rgb(18.234253%, 58.428955%, 79.019165%)" offset="0.5"/><stop stop-opacity="1" stop-color="rgb(18.09082%, 58.198547%, 78.93219%)" offset="0.503906"/><stop stop-opacity="1" stop-color="rgb(17.948914%, 57.969666%, 78.845215%)" offset="0.507813"/><stop stop-opacity="1" stop-color="rgb(17.807007%, 57.739258%, 78.756714%)" offset="0.511719"/><stop stop-opacity="1" stop-color="rgb(17.6651%, 57.510376%, 78.669739%)" offset="0.515625"/><stop stop-opacity="1" stop-color="rgb(17.521667%, 57.279968%, 78.582764%)" offset="0.519531"/><stop stop-opacity="1" stop-color="rgb(17.379761%, 57.051086%, 78.495789%)" offset="0.523438"/><stop stop-opacity="1" stop-color="rgb(17.236328%, 56.820679%, 78.407288%)" offset="0.527344"/><stop stop-opacity="1" stop-color="rgb(17.094421%, 56.591797%, 78.320312%)" offset="0.53125"/><stop stop-opacity="1" stop-color="rgb(16.950989%, 56.361389%, 78.233337%)" offset="0.535156"/><stop stop-opacity="1" stop-color="rgb(16.809082%, 56.130981%, 78.146362%)" offset="0.539063"/><stop stop-opacity="1" stop-color="rgb(16.667175%, 55.900574%, 78.057861%)" offset="0.542969"/><stop stop-opacity="1" stop-color="rgb(16.525269%, 55.671692%, 77.970886%)" offset="0.546875"/><stop stop-opacity="1" stop-color="rgb(16.381836%, 55.441284%, 77.883911%)" offset="0.550781"/><stop stop-opacity="1" stop-color="rgb(16.239929%, 55.212402%, 77.796936%)" offset="0.554688"/><stop stop-opacity="1" stop-color="rgb(16.096497%, 54.981995%, 77.708435%)" offset="0.558594"/><stop stop-opacity="1" stop-color="rgb(15.95459%, 54.753113%, 77.62146%)" offset="0.5625"/><stop stop-opacity="1" stop-color="rgb(15.811157%, 54.522705%, 77.534485%)" offset="0.566406"/><stop stop-opacity="1" stop-color="rgb(15.66925%, 54.293823%, 77.44751%)" offset="0.570313"/><stop stop-opacity="1" stop-color="rgb(15.527344%, 54.063416%, 77.359009%)" offset="0.574219"/><stop stop-opacity="1" stop-color="rgb(15.385437%, 53.834534%, 77.272034%)" offset="0.578125"/><stop stop-opacity="1" stop-color="rgb(15.242004%, 53.604126%, 77.185059%)" offset="0.582031"/><stop stop-opacity="1" stop-color="rgb(15.100098%, 53.373718%, 77.098083%)" offset="0.585938"/><stop stop-opacity="1" stop-color="rgb(14.956665%, 53.143311%, 77.009583%)" offset="0.589844"/><stop stop-opacity="1" stop-color="rgb(14.814758%, 52.914429%, 76.922607%)" offset="0.59375"/><stop stop-opacity="1" stop-color="rgb(14.672852%, 52.684021%, 76.835632%)" offset="0.597656"/><stop stop-opacity="1" stop-color="rgb(14.530945%, 52.455139%, 76.748657%)" offset="0.601563"/><stop stop-opacity="1" stop-color="rgb(14.387512%, 52.224731%, 76.660156%)" offset="0.605469"/><stop stop-opacity="1" stop-color="rgb(14.245605%, 51.99585%, 76.573181%)" offset="0.609375"/><stop stop-opacity="1" stop-color="rgb(14.102173%, 51.765442%, 76.486206%)" offset="0.613281"/><stop stop-opacity="1" stop-color="rgb(13.960266%, 51.53656%, 76.399231%)" offset="0.617188"/><stop stop-opacity="1" stop-color="rgb(13.816833%, 51.306152%, 76.31073%)" offset="0.621094"/><stop stop-opacity="1" stop-color="rgb(13.674927%, 51.077271%, 76.223755%)" offset="0.625"/><stop stop-opacity="1" stop-color="rgb(13.53302%, 50.846863%, 76.13678%)" offset="0.628906"/><stop stop-opacity="1" stop-color="rgb(13.391113%, 50.616455%, 76.049805%)" offset="0.632813"/><stop stop-opacity="1" stop-color="rgb(13.247681%, 50.386047%, 75.961304%)" offset="0.636719"/><stop stop-opacity="1" stop-color="rgb(13.105774%, 50.157166%, 75.874329%)" offset="0.640625"/><stop stop-opacity="1" stop-color="rgb(12.962341%, 49.926758%, 75.787354%)" offset="0.644531"/><stop stop-opacity="1" stop-color="rgb(12.820435%, 49.697876%, 75.700378%)" offset="0.648438"/><stop stop-opacity="1" stop-color="rgb(12.677002%, 49.467468%, 75.611877%)" offset="0.652344"/><stop stop-opacity="1" stop-color="rgb(12.535095%, 49.238586%, 75.524902%)" offset="0.65625"/><stop stop-opacity="1" stop-color="rgb(12.393188%, 49.008179%, 75.437927%)" offset="0.660156"/><stop stop-opacity="1" stop-color="rgb(12.251282%, 48.779297%, 75.350952%)" offset="0.664063"/><stop stop-opacity="1" stop-color="rgb(12.107849%, 48.548889%, 75.262451%)" offset="0.667969"/><stop stop-opacity="1" stop-color="rgb(11.965942%, 48.320007%, 75.175476%)" offset="0.671875"/><stop stop-opacity="1" stop-color="rgb(11.82251%, 48.0896%, 75.088501%)" offset="0.675781"/><stop stop-opacity="1" stop-color="rgb(11.680603%, 47.860718%, 75.001526%)" offset="0.679688"/><stop stop-opacity="1" stop-color="rgb(11.538696%, 47.63031%, 74.913025%)" offset="0.683594"/><stop stop-opacity="1" stop-color="rgb(11.39679%, 47.399902%, 74.82605%)" offset="0.6875"/><stop stop-opacity="1" stop-color="rgb(11.253357%, 47.169495%, 74.739075%)" offset="0.691406"/><stop stop-opacity="1" stop-color="rgb(11.11145%, 46.940613%, 74.6521%)" offset="0.695313"/><stop stop-opacity="1" stop-color="rgb(10.968018%, 46.710205%, 74.563599%)" offset="0.699219"/><stop stop-opacity="1" stop-color="rgb(10.826111%, 46.481323%, 74.476624%)" offset="0.703125"/><stop stop-opacity="1" stop-color="rgb(10.682678%, 46.250916%, 74.389648%)" offset="0.707031"/><stop stop-opacity="1" stop-color="rgb(10.540771%, 46.022034%, 74.302673%)" offset="0.710938"/><stop stop-opacity="1" stop-color="rgb(10.398865%, 45.791626%, 74.215698%)" offset="0.714844"/><stop stop-opacity="1" stop-color="rgb(10.256958%, 45.562744%, 74.128723%)" offset="0.71875"/><stop stop-opacity="1" stop-color="rgb(10.113525%, 45.332336%, 74.040222%)" offset="0.722656"/><stop stop-opacity="1" stop-color="rgb(9.971619%, 45.103455%, 73.953247%)" offset="0.726563"/><stop stop-opacity="1" stop-color="rgb(9.828186%, 44.873047%, 73.866272%)" offset="0.730469"/><stop stop-opacity="1" stop-color="rgb(9.686279%, 44.642639%, 73.779297%)" offset="0.734375"/><stop stop-opacity="1" stop-color="rgb(9.542847%, 44.412231%, 73.690796%)" offset="0.738281"/><stop stop-opacity="1" stop-color="rgb(9.40094%, 44.18335%, 73.603821%)" offset="0.742188"/><stop stop-opacity="1" stop-color="rgb(9.259033%, 43.952942%, 73.516846%)" offset="0.746094"/><stop stop-opacity="1" stop-color="rgb(9.117126%, 43.72406%, 73.429871%)" offset="0.75"/><stop stop-opacity="1" stop-color="rgb(8.973694%, 43.493652%, 73.34137%)" offset="0.753906"/><stop stop-opacity="1" stop-color="rgb(8.831787%, 43.264771%, 73.254395%)" offset="0.757812"/><stop stop-opacity="1" stop-color="rgb(8.688354%, 43.034363%, 73.167419%)" offset="0.761719"/><stop stop-opacity="1" stop-color="rgb(8.546448%, 42.805481%, 73.080444%)" offset="0.765625"/><stop stop-opacity="1" stop-color="rgb(8.404541%, 42.575073%, 72.991943%)" offset="0.769531"/><stop stop-opacity="1" stop-color="rgb(8.262634%, 42.346191%, 72.904968%)" offset="0.773438"/><stop stop-opacity="1" stop-color="rgb(8.119202%, 42.115784%, 72.817993%)" offset="0.777344"/><stop stop-opacity="1" stop-color="rgb(7.977295%, 41.885376%, 72.731018%)" offset="0.78125"/><stop stop-opacity="1" stop-color="rgb(7.833862%, 41.654968%, 72.642517%)" offset="0.785156"/><stop stop-opacity="1" stop-color="rgb(7.691956%, 41.426086%, 72.555542%)" offset="0.789062"/><stop stop-opacity="1" stop-color="rgb(7.548523%, 41.195679%, 72.468567%)" offset="0.792969"/><stop stop-opacity="1" stop-color="rgb(7.406616%, 40.966797%, 72.381592%)" offset="0.796875"/><stop stop-opacity="1" stop-color="rgb(7.264709%, 40.736389%, 72.293091%)" offset="0.800781"/><stop stop-opacity="1" stop-color="rgb(7.122803%, 40.507507%, 72.206116%)" offset="0.804688"/><stop stop-opacity="1" stop-color="rgb(6.97937%, 40.2771%, 72.119141%)" offset="0.808594"/><stop stop-opacity="1" stop-color="rgb(6.837463%, 40.048218%, 72.032166%)" offset="0.8125"/><stop stop-opacity="1" stop-color="rgb(6.694031%, 39.81781%, 71.943665%)" offset="0.816406"/><stop stop-opacity="1" stop-color="rgb(6.552124%, 39.588928%, 71.856689%)" offset="0.820312"/><stop stop-opacity="1" stop-color="rgb(6.408691%, 39.358521%, 71.769714%)" offset="0.824219"/><stop stop-opacity="1" stop-color="rgb(6.266785%, 39.129639%, 71.682739%)" offset="0.828125"/><stop stop-opacity="1" stop-color="rgb(6.124878%, 38.899231%, 71.594238%)" offset="0.832031"/><stop stop-opacity="1" stop-color="rgb(5.982971%, 38.668823%, 71.507263%)" offset="0.835938"/><stop stop-opacity="1" stop-color="rgb(5.839539%, 38.438416%, 71.420288%)" offset="0.839844"/><stop stop-opacity="1" stop-color="rgb(5.697632%, 38.209534%, 71.333313%)" offset="0.84375"/><stop stop-opacity="1" stop-color="rgb(5.554199%, 37.979126%, 71.244812%)" offset="0.847656"/><stop stop-opacity="1" stop-color="rgb(5.412292%, 37.750244%, 71.157837%)" offset="0.851562"/><stop stop-opacity="1" stop-color="rgb(5.270386%, 37.519836%, 71.070862%)" offset="0.855469"/><stop stop-opacity="1" stop-color="rgb(5.128479%, 37.290955%, 70.983887%)" offset="0.859375"/><stop stop-opacity="1" stop-color="rgb(4.985046%, 37.060547%, 70.895386%)" offset="0.863281"/><stop stop-opacity="1" stop-color="rgb(4.84314%, 36.831665%, 70.808411%)" offset="0.867188"/><stop stop-opacity="1" stop-color="rgb(4.699707%, 36.601257%, 70.721436%)" offset="0.871094"/><stop stop-opacity="1" stop-color="rgb(4.5578%, 36.372375%, 70.63446%)" offset="0.875"/><stop stop-opacity="1" stop-color="rgb(4.414368%, 36.141968%, 70.545959%)" offset="0.878906"/><stop stop-opacity="1" stop-color="rgb(4.272461%, 35.91156%, 70.458984%)" offset="0.882812"/><stop stop-opacity="1" stop-color="rgb(4.130554%, 35.681152%, 70.372009%)" offset="0.886719"/><stop stop-opacity="1" stop-color="rgb(3.988647%, 35.452271%, 70.285034%)" offset="0.890625"/><stop stop-opacity="1" stop-color="rgb(3.845215%, 35.221863%, 70.196533%)" offset="0.894531"/><stop stop-opacity="1" stop-color="rgb(3.703308%, 34.992981%, 70.109558%)" offset="0.898438"/><stop stop-opacity="1" stop-color="rgb(3.559875%, 34.762573%, 70.022583%)" offset="0.902344"/><stop stop-opacity="1" stop-color="rgb(3.417969%, 34.533691%, 69.935608%)" offset="0.90625"/><stop stop-opacity="1" stop-color="rgb(3.274536%, 34.303284%, 69.847107%)" offset="0.910156"/><stop stop-opacity="1" stop-color="rgb(3.132629%, 34.074402%, 69.760132%)" offset="0.914062"/><stop stop-opacity="1" stop-color="rgb(2.990723%, 33.843994%, 69.673157%)" offset="0.917969"/><stop stop-opacity="1" stop-color="rgb(2.848816%, 33.615112%, 69.586182%)" offset="0.921875"/><stop stop-opacity="1" stop-color="rgb(2.705383%, 33.384705%, 69.497681%)" offset="0.925781"/><stop stop-opacity="1" stop-color="rgb(2.563477%, 33.154297%, 69.410706%)" offset="0.929688"/><stop stop-opacity="1" stop-color="rgb(2.420044%, 32.923889%, 69.32373%)" offset="0.933594"/><stop stop-opacity="1" stop-color="rgb(2.278137%, 32.695007%, 69.236755%)" offset="0.9375"/><stop stop-opacity="1" stop-color="rgb(2.13623%, 32.4646%, 69.14978%)" offset="0.941406"/><stop stop-opacity="1" stop-color="rgb(1.994324%, 32.235718%, 69.062805%)" offset="0.945312"/><stop stop-opacity="1" stop-color="rgb(1.850891%, 32.00531%, 68.974304%)" offset="0.949219"/><stop stop-opacity="1" stop-color="rgb(1.708984%, 31.776428%, 68.887329%)" offset="0.953125"/><stop stop-opacity="1" stop-color="rgb(1.565552%, 31.546021%, 68.800354%)" offset="0.957031"/><stop stop-opacity="1" stop-color="rgb(1.423645%, 31.317139%, 68.713379%)" offset="0.960938"/><stop stop-opacity="1" stop-color="rgb(1.280212%, 31.086731%, 68.624878%)" offset="0.964844"/><stop stop-opacity="1" stop-color="rgb(1.138306%, 30.857849%, 68.537903%)" offset="0.96875"/><stop stop-opacity="1" stop-color="rgb(0.996399%, 30.627441%, 68.450928%)" offset="0.972656"/><stop stop-opacity="1" stop-color="rgb(0.854492%, 30.39856%, 68.363953%)" offset="0.976562"/><stop stop-opacity="1" stop-color="rgb(0.71106%, 30.168152%, 68.275452%)" offset="0.980469"/><stop stop-opacity="1" stop-color="rgb(0.569153%, 29.937744%, 68.188477%)" offset="0.984375"/><stop stop-opacity="1" stop-color="rgb(0.42572%, 29.707336%, 68.101501%)" offset="0.988281"/><stop stop-opacity="1" stop-color="rgb(0.283813%, 29.478455%, 68.014526%)" offset="0.992188"/><stop stop-opacity="1" stop-color="rgb(0.141907%, 29.248047%, 67.926025%)" offset="0.996094"/><stop stop-opacity="1" stop-color="rgb(0%, 29.019165%, 67.83905%)" offset="1"/></linearGradient><clipPath id="ab0bfc2cf1"><rect x="0" width="144" y="0" height="144"/></clipPath><clipPath id="1cca2b9662"><rect x="0" width="135" y="0" height="144"/></clipPath></defs><g clip-path="url(#f81b0939b3)"><g transform="matrix(1, 0, 0, 1, 0, -0.000000000000008916)"><g clip-path="url(#ab0bfc2cf1)"><g clip-path="url(#6a54a0ac01)"><g clip-path="url(#59e55d8e76)"><rect x="-31.68" fill="url(#beff3129f9)" width="207.36" height="207.359996" y="-31.679999"/></g></g></g></g></g><g transform="matrix(1, 0, 0, 1, 5, -0.000000000000008916)"><g clip-path="url(#1cca2b9662)"><g fill="#ffffff" fill-opacity="1"><g transform="translate(0.476381, 112.765276)"><g><path d="M 19.359375 -88.328125 C 19.046875 -89.035156 19.132812 -89.566406 19.625 -89.921875 C 20.113281 -90.285156 21.441406 -90.375 23.609375 -90.1875 C 25.785156 -90.007812 28.023438 -89.613281 30.328125 -89 C 32.816406 -88.375 34.546875 -87.707031 35.515625 -87 C 36.492188 -86.289062 37.382812 -85.003906 38.1875 -83.140625 C 38.800781 -81.898438 39.175781 -80.328125 39.3125 -78.421875 C 39.445312 -76.515625 39.335938 -75.117188 38.984375 -74.234375 C 38.535156 -73.523438 38.222656 -71.769531 38.046875 -68.96875 C 37.867188 -66.175781 37.734375 -64.734375 37.640625 -64.640625 C 37.554688 -64.554688 36.757812 -64.914062 35.25 -65.71875 C 33.738281 -66.519531 32.675781 -67.1875 32.0625 -67.71875 C 31.257812 -68.425781 30.679688 -68.78125 30.328125 -68.78125 C 29.972656 -68.78125 29.398438 -69 28.609375 -69.4375 L 27.53125 -70.109375 C 27.445312 -70.109375 27.226562 -71.484375 26.875 -74.234375 C 26.519531 -76.984375 26.097656 -78.867188 25.609375 -79.890625 C 25.117188 -80.910156 24.875 -81.6875 24.875 -82.21875 C 24.875 -82.75 24.453125 -83.476562 23.609375 -84.40625 C 22.765625 -85.34375 21.921875 -86.050781 21.078125 -86.53125 C 20.242188 -87.019531 19.671875 -87.617188 19.359375 -88.328125 Z M 86.203125 -97.25 C 86.203125 -97.425781 86.488281 -97.664062 87.0625 -97.96875 C 87.644531 -98.28125 88.332031 -98.394531 89.125 -98.3125 C 91.082031 -97.863281 92.59375 -97.351562 93.65625 -96.78125 C 94.71875 -96.207031 95.738281 -95.164062 96.71875 -93.65625 C 97.332031 -92.851562 97.679688 -92.207031 97.765625 -91.71875 C 97.859375 -91.238281 97.90625 -89.976562 97.90625 -87.9375 C 97.90625 -85.894531 97.859375 -84.539062 97.765625 -83.875 C 97.679688 -83.207031 97.332031 -82.253906 96.71875 -81.015625 C 95.914062 -79.242188 95.515625 -78.222656 95.515625 -77.953125 C 95.515625 -77.242188 96.09375 -77.332031 97.25 -78.21875 C 97.332031 -78.3125 97.460938 -78.445312 97.640625 -78.625 C 98.265625 -79.238281 98.707031 -79.546875 98.96875 -79.546875 C 99.238281 -79.546875 99.796875 -79.859375 100.640625 -80.484375 C 101.484375 -81.109375 101.992188 -81.421875 102.171875 -81.421875 C 102.347656 -81.421875 103.144531 -81.90625 104.5625 -82.875 C 105.800781 -83.5 107.195312 -83.988281 108.75 -84.34375 C 110.300781 -84.695312 111.300781 -84.648438 111.75 -84.203125 C 112.007812 -84.023438 112.78125 -83.757812 114.0625 -83.40625 C 115.351562 -83.050781 116.195312 -82.492188 116.59375 -81.734375 C 117 -80.984375 117.175781 -80.472656 117.125 -80.203125 C 117.082031 -79.941406 117.257812 -79.566406 117.65625 -79.078125 C 118.0625 -78.597656 118.195312 -78.289062 118.0625 -78.15625 C 117.925781 -78.019531 118.082031 -77.734375 118.53125 -77.296875 C 118.882812 -77.117188 118.660156 -76.851562 117.859375 -76.5 C 117.773438 -76.5 117.554688 -76.410156 117.203125 -76.234375 C 116.046875 -75.785156 115.242188 -75.5625 114.796875 -75.5625 C 114.359375 -75.5625 113.804688 -75.25 113.140625 -74.625 C 112.472656 -74.007812 111.914062 -73.613281 111.46875 -73.4375 C 111.03125 -73.257812 110.65625 -73.082031 110.34375 -72.90625 C 110.039062 -72.726562 108.535156 -71.75 105.828125 -69.96875 C 103.117188 -68.195312 101.585938 -67.085938 101.234375 -66.640625 C 100.878906 -66.203125 100.613281 -65.984375 100.4375 -65.984375 C 100.257812 -65.984375 99.570312 -65.5625 98.375 -64.71875 C 97.175781 -63.875 96.332031 -63.363281 95.84375 -63.1875 C 95.363281 -63.007812 95.03125 -62.675781 94.84375 -62.1875 C 94.664062 -61.695312 94.421875 -61.492188 94.109375 -61.578125 C 93.804688 -61.671875 93.453125 -61.5625 93.046875 -61.25 C 92.648438 -60.945312 92.382812 -60.570312 92.25 -60.125 C 92.125 -59.6875 91.835938 -59.53125 91.390625 -59.65625 C 90.953125 -59.789062 90.734375 -59.75 90.734375 -59.53125 C 90.734375 -59.3125 90.488281 -59.203125 90 -59.203125 C 89.507812 -59.203125 89.085938 -58.890625 88.734375 -58.265625 C 88.378906 -57.648438 87.734375 -57.097656 86.796875 -56.609375 C 85.867188 -56.117188 85.40625 -55.738281 85.40625 -55.46875 C 85.40625 -55.382812 85.179688 -55.34375 84.734375 -55.34375 C 84.296875 -55.34375 83.722656 -55.382812 83.015625 -55.46875 C 82.304688 -55.5625 81.503906 -55.785156 80.609375 -56.140625 C 79.722656 -56.316406 78.859375 -56.738281 78.015625 -57.40625 C 77.179688 -58.070312 76.628906 -58.671875 76.359375 -59.203125 C 76.273438 -59.640625 75.695312 -59.945312 74.625 -60.125 C 73.5625 -60.300781 72.765625 -60.742188 72.234375 -61.453125 C 71.703125 -62.171875 71.613281 -62.972656 71.96875 -63.859375 C 72.144531 -64.648438 72.164062 -65.265625 72.03125 -65.703125 C 71.90625 -66.148438 72.039062 -66.460938 72.4375 -66.640625 C 72.832031 -66.828125 73.519531 -66.875 74.5 -66.78125 C 75.382812 -66.78125 75.894531 -66.867188 76.03125 -67.046875 C 76.164062 -67.222656 75.960938 -67.664062 75.421875 -68.375 L 74.765625 -69.046875 L 73.03125 -68.375 C 71.882812 -67.757812 70.910156 -67.140625 70.109375 -66.515625 C 69.304688 -65.890625 68.796875 -65.578125 68.578125 -65.578125 C 68.359375 -65.578125 67.71875 -65.269531 66.65625 -64.65625 C 65.757812 -64.03125 65.242188 -63.609375 65.109375 -63.390625 C 64.984375 -63.171875 64.960938 -62.660156 65.046875 -61.859375 C 65.222656 -60.796875 65.09375 -59.6875 64.65625 -58.53125 C 64.207031 -57.644531 63.914062 -56.644531 63.78125 -55.53125 C 63.65625 -54.425781 63.679688 -53.832031 63.859375 -53.75 C 63.941406 -53.65625 64.738281 -53.429688 66.25 -53.078125 C 69.976562 -52.191406 72.375 -51.257812 73.4375 -50.28125 C 74.582031 -49.039062 75.351562 -47.800781 75.75 -46.5625 C 76.15625 -45.320312 76.359375 -43.414062 76.359375 -40.84375 C 76.359375 -37.644531 76.269531 -35.335938 76.09375 -33.921875 L 75.828125 -31.796875 L 77.296875 -32.0625 C 78.441406 -32.320312 79.257812 -32.492188 79.75 -32.578125 C 80.238281 -32.671875 81.144531 -32.914062 82.46875 -33.3125 C 83.800781 -33.71875 84.828125 -33.921875 85.546875 -33.921875 C 86.253906 -33.921875 86.785156 -34.078125 87.140625 -34.390625 C 87.492188 -34.703125 87.644531 -35.054688 87.59375 -35.453125 C 87.550781 -35.847656 87.664062 -36.179688 87.9375 -36.453125 C 88.019531 -36.710938 87.992188 -36.882812 87.859375 -36.96875 C 87.734375 -37.0625 87.582031 -37.109375 87.40625 -37.109375 C 86.875 -37.109375 86.609375 -37.195312 86.609375 -37.375 C 86.609375 -37.644531 86.875 -37.976562 87.40625 -38.375 C 87.9375 -38.78125 88.46875 -39.023438 89 -39.109375 C 89.707031 -39.285156 90.21875 -39.660156 90.53125 -40.234375 C 90.84375 -40.816406 91.304688 -41.460938 91.921875 -42.171875 C 92.546875 -42.878906 92.789062 -43.273438 92.65625 -43.359375 C 92.519531 -43.453125 91.804688 -43.585938 90.515625 -43.765625 C 89.234375 -43.941406 87.53125 -44.40625 85.40625 -45.15625 C 83.28125 -45.914062 81.863281 -46.296875 81.15625 -46.296875 C 79.726562 -46.296875 78.75 -47.40625 78.21875 -49.625 C 78.132812 -50.238281 78.15625 -50.632812 78.28125 -50.8125 C 78.414062 -50.988281 79.0625 -51.210938 80.21875 -51.484375 C 82.789062 -52.191406 85.757812 -53.742188 89.125 -56.140625 C 91.082031 -57.296875 92.238281 -57.875 92.59375 -57.875 C 92.945312 -57.875 93.1875 -58.050781 93.3125 -58.40625 C 93.445312 -58.757812 94.203125 -59.3125 95.578125 -60.0625 C 96.953125 -60.8125 97.679688 -61.253906 97.765625 -61.390625 C 97.859375 -61.523438 98.570312 -61.945312 99.90625 -62.65625 C 100.882812 -63.101562 101.523438 -63.347656 101.828125 -63.390625 C 102.140625 -63.429688 102.648438 -63.320312 103.359375 -63.0625 C 104.429688 -62.707031 105.410156 -62.570312 106.296875 -62.65625 C 107.359375 -62.75 108.421875 -62.640625 109.484375 -62.328125 C 110.546875 -62.015625 111.253906 -61.546875 111.609375 -60.921875 C 111.960938 -60.304688 112.316406 -59.820312 112.671875 -59.46875 C 113.023438 -59.113281 113.132812 -58.671875 113 -58.140625 C 112.875 -57.609375 112.941406 -57.007812 113.203125 -56.34375 C 113.472656 -55.675781 113.429688 -55.1875 113.078125 -54.875 C 112.722656 -54.5625 112.546875 -54.207031 112.546875 -53.8125 C 112.546875 -53.414062 112.320312 -53.304688 111.875 -53.484375 C 111.695312 -53.566406 111.472656 -53.429688 111.203125 -53.078125 C 110.941406 -52.722656 110.769531 -52.28125 110.6875 -51.75 C 110.6875 -51.300781 110.351562 -50.34375 109.6875 -48.875 C 109.019531 -47.414062 108.507812 -46.507812 108.15625 -46.15625 C 107.707031 -45.625 107.238281 -44.957031 106.75 -44.15625 C 106.269531 -43.363281 105.519531 -42.210938 104.5 -40.703125 C 103.476562 -39.203125 103.117188 -38.335938 103.421875 -38.109375 C 103.734375 -37.890625 104.066406 -38 104.421875 -38.4375 C 104.785156 -38.882812 105.207031 -39.019531 105.6875 -38.84375 C 106.175781 -38.664062 107.265625 -38.84375 108.953125 -39.375 C 110.640625 -39.90625 111.570312 -40.101562 111.75 -39.96875 C 111.925781 -39.84375 112.078125 -39.910156 112.203125 -40.171875 C 112.335938 -40.441406 112.984375 -40.617188 114.140625 -40.703125 C 115.296875 -40.796875 115.875 -40.882812 115.875 -40.96875 C 115.875 -41.144531 115.984375 -41.234375 116.203125 -41.234375 C 116.421875 -41.234375 116.617188 -41.210938 116.796875 -41.171875 C 116.972656 -41.128906 117.109375 -41.019531 117.203125 -40.84375 C 117.460938 -40.488281 117.640625 -40.488281 117.734375 -40.84375 C 117.992188 -41.28125 118.410156 -41.453125 118.984375 -41.359375 C 119.566406 -41.273438 120.101562 -40.945312 120.59375 -40.375 C 121.082031 -39.800781 121.238281 -39.289062 121.0625 -38.84375 C 120.96875 -38.3125 120.988281 -38.019531 121.125 -37.96875 C 121.257812 -37.925781 121.769531 -37.90625 122.65625 -37.90625 C 123.363281 -37.90625 123.804688 -37.835938 123.984375 -37.703125 C 124.160156 -37.578125 124.207031 -37.425781 124.125 -37.25 C 124.03125 -36.894531 124.140625 -36.71875 124.453125 -36.71875 C 124.765625 -36.71875 124.832031 -36.582031 124.65625 -36.3125 C 124.476562 -36.050781 124.5 -35.742188 124.71875 -35.390625 C 124.9375 -35.035156 125.179688 -34.898438 125.453125 -34.984375 C 125.890625 -35.078125 125.796875 -34.878906 125.171875 -34.390625 C 124.554688 -33.898438 124.492188 -33.5 124.984375 -33.1875 C 125.472656 -32.875 125.757812 -32.1875 125.84375 -31.125 L 126.109375 -29.796875 L 124.390625 -29.671875 C 123.316406 -29.671875 122.378906 -29.625 121.578125 -29.53125 C 120.785156 -29.445312 120.210938 -29.359375 119.859375 -29.265625 C 117.816406 -28.378906 116.796875 -28.160156 116.796875 -28.609375 C 116.796875 -28.785156 116.640625 -28.894531 116.328125 -28.9375 C 116.023438 -28.976562 115.71875 -28.929688 115.40625 -28.796875 C 115.09375 -28.671875 114.894531 -28.472656 114.8125 -28.203125 C 114.457031 -27.847656 114.234375 -27.800781 114.140625 -28.0625 C 113.960938 -28.425781 113.648438 -28.609375 113.203125 -28.609375 C 112.765625 -28.609375 112.429688 -28.425781 112.203125 -28.0625 C 111.984375 -27.707031 110.988281 -27.375 109.21875 -27.0625 C 107.445312 -26.757812 106.5625 -26.609375 106.5625 -26.609375 C 106.382812 -26.335938 106.25 -25.867188 106.15625 -25.203125 C 106.070312 -24.546875 106.070312 -23.925781 106.15625 -23.34375 C 106.25 -22.769531 106.335938 -22.484375 106.421875 -22.484375 C 106.515625 -22.484375 106.5625 -22.0625 106.5625 -21.21875 C 106.5625 -20.375 106.515625 -19.460938 106.421875 -18.484375 C 106.335938 -17.515625 106.207031 -16.804688 106.03125 -16.359375 C 105.851562 -15.742188 105.894531 -15.4375 106.15625 -15.4375 C 106.425781 -15.4375 106.515625 -14.945312 106.421875 -13.96875 C 106.066406 -10.769531 105.847656 -7.753906 105.765625 -4.921875 C 105.671875 -3.503906 105.515625 -2.640625 105.296875 -2.328125 C 105.078125 -2.015625 104.941406 -1.148438 104.890625 0.265625 C 104.847656 1.679688 104.691406 2.546875 104.421875 2.859375 C 104.160156 3.171875 103.894531 3.816406 103.625 4.796875 C 103.363281 5.941406 102.742188 7.535156 101.765625 9.578125 L 100.96875 11.703125 C 100.707031 12.410156 100.085938 13.117188 99.109375 13.828125 C 98.128906 14.546875 97.550781 15.054688 97.375 15.359375 C 97.195312 15.671875 96.578125 16.40625 95.515625 17.5625 C 94.003906 19.15625 93.117188 19.066406 92.859375 17.296875 C 92.765625 16.765625 91.875 15.742188 90.1875 14.234375 C 88.507812 12.722656 87.601562 11.703125 87.46875 11.171875 C 87.332031 10.640625 86.617188 9.707031 85.328125 8.375 C 84.046875 7.050781 83.535156 6.125 83.796875 5.59375 C 84.066406 5.0625 83.984375 4.523438 83.546875 3.984375 C 83.097656 3.191406 83.363281 2.835938 84.34375 2.921875 C 84.695312 3.015625 85.097656 3.148438 85.546875 3.328125 C 88.734375 4.035156 91.035156 4.164062 92.453125 3.71875 C 92.898438 3.539062 93.34375 2.851562 93.78125 1.65625 C 94.226562 0.457031 94.5625 -0.378906 94.78125 -0.859375 C 95.007812 -1.347656 95.054688 -1.703125 94.921875 -1.921875 C 94.785156 -2.148438 94.851562 -2.570312 95.125 -3.1875 C 95.832031 -4.96875 96.140625 -8.804688 96.046875 -14.703125 C 95.960938 -20.597656 95.5625 -23.546875 94.84375 -23.546875 C 94.582031 -23.546875 92.941406 -23.144531 89.921875 -22.34375 C 86.910156 -21.550781 84.695312 -21.15625 83.28125 -21.15625 C 78.664062 -21.0625 75.957031 -21.414062 75.15625 -22.21875 C 74.625 -22.75 74.113281 -23.144531 73.625 -23.40625 C 73.144531 -23.675781 72.878906 -23.519531 72.828125 -22.9375 C 72.785156 -22.363281 72.628906 -22.054688 72.359375 -22.015625 C 72.097656 -21.972656 71.96875 -21.816406 71.96875 -21.546875 C 71.96875 -21.191406 70.859375 -19.816406 68.640625 -17.421875 C 68.109375 -16.710938 67.488281 -15.785156 66.78125 -14.640625 L 64.125 -10.515625 C 63.144531 -9.003906 62.722656 -7.984375 62.859375 -7.453125 C 62.992188 -6.921875 62.703125 -6.410156 61.984375 -5.921875 C 61.273438 -5.429688 60.125 -4.390625 58.53125 -2.796875 C 57.820312 -2.171875 57.289062 -1.722656 56.9375 -1.453125 C 56.582031 -1.191406 56.269531 -1.0625 56 -1.0625 C 55.738281 -1.0625 55.5625 -1.191406 55.46875 -1.453125 C 55.382812 -1.722656 55.34375 -2.171875 55.34375 -2.796875 C 55.34375 -3.503906 55.117188 -4.101562 54.671875 -4.59375 C 54.234375 -5.082031 53.925781 -5.769531 53.75 -6.65625 C 53.300781 -8.15625 52.675781 -9.882812 51.875 -11.84375 C 51.613281 -12.457031 51.347656 -13.695312 51.078125 -15.5625 C 50.816406 -17.425781 50.6875 -19.046875 50.6875 -20.421875 C 50.6875 -21.796875 50.773438 -22.570312 50.953125 -22.75 C 51.210938 -22.75 51.609375 -22.148438 52.140625 -20.953125 C 52.679688 -19.753906 52.953125 -18.976562 52.953125 -18.625 C 52.953125 -18.269531 53.128906 -17.976562 53.484375 -17.75 C 53.835938 -17.53125 54.320312 -17.820312 54.9375 -18.625 C 55.5625 -19.425781 56.070312 -20.046875 56.46875 -20.484375 C 56.875 -20.929688 57.429688 -21.773438 58.140625 -23.015625 C 59.285156 -25.140625 60.035156 -26.335938 60.390625 -26.609375 C 60.566406 -26.785156 61.253906 -28.25 62.453125 -31 C 63.648438 -33.75 64.425781 -35.695312 64.78125 -36.84375 C 65.132812 -38.175781 65.378906 -39.863281 65.515625 -41.90625 C 65.648438 -43.945312 65.539062 -45.363281 65.1875 -46.15625 C 64.832031 -47.226562 63.859375 -47.765625 62.265625 -47.765625 C 61.816406 -47.765625 61.101562 -46.609375 60.125 -44.296875 C 55.875 -34.015625 53.304688 -28.691406 52.421875 -28.328125 C 51.972656 -28.148438 51.789062 -27.972656 51.875 -27.796875 C 52.144531 -27.617188 52.054688 -27.265625 51.609375 -26.734375 C 51.171875 -26.203125 50.863281 -25.984375 50.6875 -26.078125 C 50.414062 -26.160156 50.144531 -25.9375 49.875 -25.40625 C 49.613281 -24.875 48.953125 -23.988281 47.890625 -22.75 C 47.085938 -21.6875 45.929688 -19.957031 44.421875 -17.5625 C 42.921875 -15.164062 42.171875 -13.832031 42.171875 -13.5625 C 42.171875 -13.125 41.878906 -12.878906 41.296875 -12.828125 C 40.722656 -12.785156 40.347656 -12.941406 40.171875 -13.296875 C 39.910156 -13.742188 39.535156 -14.210938 39.046875 -14.703125 C 38.554688 -15.191406 38.332031 -15.523438 38.375 -15.703125 C 38.425781 -15.878906 38.09375 -16.1875 37.375 -16.625 C 36.050781 -17.25 35.566406 -17.914062 35.921875 -18.625 C 36.003906 -18.976562 35.867188 -19.15625 35.515625 -19.15625 C 35.335938 -19.15625 35.226562 -19.332031 35.1875 -19.6875 C 35.144531 -20.039062 35.164062 -20.375 35.25 -20.6875 C 35.34375 -21 35.476562 -21.242188 35.65625 -21.421875 C 36.007812 -21.503906 35.921875 -21.769531 35.390625 -22.21875 C 35.117188 -22.65625 35.003906 -22.941406 35.046875 -23.078125 C 35.097656 -23.210938 35.300781 -23.59375 35.65625 -24.21875 C 36.363281 -24.925781 36.71875 -25.5 36.71875 -25.9375 C 36.71875 -26.382812 37.003906 -26.671875 37.578125 -26.796875 C 38.160156 -26.929688 38.71875 -27.398438 39.25 -28.203125 C 39.78125 -29.003906 40.707031 -30.332031 42.03125 -32.1875 C 43.101562 -33.695312 44.300781 -35.515625 45.625 -37.640625 C 46.957031 -39.773438 47.625 -40.972656 47.625 -41.234375 C 47.625 -41.503906 47.734375 -41.640625 47.953125 -41.640625 C 48.179688 -41.640625 48.359375 -41.972656 48.484375 -42.640625 C 48.617188 -43.304688 48.953125 -43.96875 49.484375 -44.625 C 50.015625 -45.289062 50.28125 -45.800781 50.28125 -46.15625 C 50.28125 -46.507812 50.722656 -47.578125 51.609375 -49.359375 C 52.234375 -50.597656 52.832031 -52.125 53.40625 -53.9375 C 53.988281 -55.757812 54.191406 -56.757812 54.015625 -56.9375 C 53.921875 -57.113281 53.078125 -56.671875 51.484375 -55.609375 C 43.503906 -50.285156 37.5625 -48.953125 33.65625 -51.609375 C 32.769531 -52.234375 31.882812 -52.59375 31 -52.6875 L 29.796875 -53.078125 L 29.9375 -50.546875 C 30.113281 -48.953125 30.332031 -47.203125 30.59375 -45.296875 C 30.863281 -43.390625 30.863281 -41.816406 30.59375 -40.578125 C 30.507812 -39.597656 30.597656 -39.109375 30.859375 -39.109375 L 30.328125 -36.453125 C 29.796875 -34.585938 29.398438 -33.703125 29.140625 -33.796875 C 28.597656 -33.972656 28.019531 -33.4375 27.40625 -32.1875 C 27.132812 -31.476562 27 -31.054688 27 -30.921875 C 27 -30.796875 27.132812 -30.6875 27.40625 -30.59375 C 27.84375 -30.332031 28.082031 -30.222656 28.125 -30.265625 C 28.175781 -30.304688 28.203125 -30.59375 28.203125 -31.125 C 28.203125 -31.75 28.378906 -32.015625 28.734375 -31.921875 C 29.085938 -31.835938 29.84375 -32.550781 31 -34.0625 C 34.457031 -39.375 36.539062 -42.390625 37.25 -43.109375 C 37.78125 -43.460938 37.867188 -43.460938 37.515625 -43.109375 C 37.421875 -43.015625 37.285156 -42.789062 37.109375 -42.4375 C 36.492188 -41.550781 35.875 -40.507812 35.25 -39.3125 C 34.632812 -38.113281 33.835938 -36.804688 32.859375 -35.390625 C 30.285156 -31.660156 29.175781 -29.488281 29.53125 -28.875 C 29.800781 -28.507812 29.691406 -27.882812 29.203125 -27 C 28.710938 -26.113281 28.289062 -25.71875 27.9375 -25.8125 C 27.664062 -25.8125 27.53125 -25.765625 27.53125 -25.671875 C 27.445312 -25.234375 27.625 -24.96875 28.0625 -24.875 C 28.332031 -24.789062 28.953125 -25.5 29.921875 -27 C 30.898438 -28.507812 31.5 -29.242188 31.71875 -29.203125 C 31.945312 -29.160156 32.238281 -29.40625 32.59375 -29.9375 L 32.859375 -29.796875 C 32.503906 -29.085938 32.191406 -28.554688 31.921875 -28.203125 C 30.773438 -26.691406 29.890625 -25.050781 29.265625 -23.28125 C 29.710938 -23.539062 29.890625 -23.453125 29.796875 -23.015625 C 29.796875 -22.660156 29.578125 -22.171875 29.140625 -21.546875 C 27.710938 -19.679688 27.3125 -18.53125 27.9375 -18.09375 C 28.113281 -18 27.957031 -17.375 27.46875 -16.21875 C 26.976562 -15.070312 26.554688 -14.457031 26.203125 -14.375 C 26.023438 -14.1875 25.9375 -13.894531 25.9375 -13.5 C 25.9375 -13.101562 25.757812 -12.660156 25.40625 -12.171875 C 25.050781 -11.679688 24.875 -11.191406 24.875 -10.703125 C 24.875 -10.222656 24.71875 -9.984375 24.40625 -9.984375 C 24.101562 -9.984375 24.015625 -9.691406 24.140625 -9.109375 C 24.273438 -8.535156 24.140625 -8.09375 23.734375 -7.78125 C 23.335938 -7.46875 23.140625 -7.132812 23.140625 -6.78125 C 23.140625 -6.425781 22.785156 -5.738281 22.078125 -4.71875 C 21.367188 -3.695312 20.796875 -2.742188 20.359375 -1.859375 C 19.472656 -0.265625 18.453125 0.441406 17.296875 0.265625 C 16.492188 -0.00390625 15.894531 -0.289062 15.5 -0.59375 C 15.101562 -0.90625 14.523438 -1.238281 13.765625 -1.59375 C 13.015625 -1.945312 12.285156 -2.476562 11.578125 -3.1875 C 10.867188 -3.894531 10.15625 -4.25 9.4375 -4.25 C 7.664062 -4.25 6.78125 -5.582031 6.78125 -8.25 C 6.875 -9.664062 7.03125 -10.570312 7.25 -10.96875 C 7.46875 -11.375 7.976562 -11.53125 8.78125 -11.4375 C 9.488281 -11.4375 10.039062 -11.613281 10.4375 -11.96875 C 10.84375 -12.320312 11.753906 -13.429688 13.171875 -15.296875 L 17.03125 -19.953125 C 17.5625 -20.660156 18.132812 -21.503906 18.75 -22.484375 L 22.078125 -26.875 C 25.710938 -31.84375 27.398438 -34.457031 27.140625 -34.71875 C 26.691406 -34.8125 25.890625 -35.410156 24.734375 -36.515625 C 23.585938 -37.628906 22.660156 -38.453125 21.953125 -38.984375 C 21.148438 -39.515625 20.304688 -40.707031 19.421875 -42.5625 C 19.242188 -43.101562 19.175781 -43.460938 19.21875 -43.640625 C 19.269531 -43.816406 19.179688 -44.410156 18.953125 -45.421875 C 18.734375 -46.441406 18.488281 -47.617188 18.21875 -48.953125 C 17.863281 -51.171875 16.671875 -53.125 14.640625 -54.8125 C 13.742188 -55.519531 13.519531 -55.875 13.96875 -55.875 C 14.769531 -55.875 14.722656 -56.316406 13.828125 -57.203125 C 12.679688 -58.179688 13.082031 -58.9375 15.03125 -59.46875 C 16.539062 -60 18.179688 -59.953125 19.953125 -59.328125 C 21.285156 -58.890625 22.148438 -58.671875 22.546875 -58.671875 C 22.941406 -58.671875 23.335938 -58.425781 23.734375 -57.9375 C 24.140625 -57.445312 24.765625 -57.113281 25.609375 -56.9375 C 26.453125 -56.757812 27.140625 -56.425781 27.671875 -55.9375 C 28.203125 -55.445312 28.578125 -55.359375 28.796875 -55.671875 C 29.023438 -55.984375 28.960938 -56.226562 28.609375 -56.40625 C 28.421875 -56.488281 28.414062 -56.6875 28.59375 -57 C 28.78125 -57.3125 29.050781 -57.597656 29.40625 -57.859375 C 29.757812 -58.128906 30.066406 -58.265625 30.328125 -58.265625 C 30.773438 -58.265625 31.6875 -58.484375 33.0625 -58.921875 C 34.4375 -59.367188 35.300781 -59.726562 35.65625 -60 C 36.007812 -60.351562 36.5625 -60.707031 37.3125 -61.0625 C 38.070312 -61.414062 38.894531 -61.878906 39.78125 -62.453125 C 40.664062 -63.035156 41.347656 -63.328125 41.828125 -63.328125 C 42.316406 -63.328125 42.5625 -63.4375 42.5625 -63.65625 C 42.5625 -63.875 42.738281 -63.984375 43.09375 -63.984375 C 43.457031 -63.984375 43.640625 -64.113281 43.640625 -64.375 C 43.640625 -64.644531 43.835938 -64.78125 44.234375 -64.78125 C 44.628906 -64.78125 45.78125 -65.445312 47.6875 -66.78125 C 49.59375 -68.113281 50.769531 -68.691406 51.21875 -68.515625 C 51.75 -68.242188 52.015625 -68.421875 52.015625 -69.046875 C 52.015625 -69.304688 51.925781 -69.484375 51.75 -69.578125 C 51.476562 -69.753906 51.429688 -70.835938 51.609375 -72.828125 C 51.785156 -74.828125 51.875 -77.691406 51.875 -81.421875 C 51.875 -84.253906 51.828125 -86.023438 51.734375 -86.734375 C 51.648438 -87.441406 51.34375 -88.328125 50.8125 -89.390625 C 50.101562 -90.992188 49.660156 -91.835938 49.484375 -91.921875 C 48.773438 -92.191406 49.085938 -92.632812 50.421875 -93.25 C 51.210938 -93.695312 52.234375 -93.832031 53.484375 -93.65625 C 54.546875 -93.5625 56.03125 -93.140625 57.9375 -92.390625 C 59.84375 -91.640625 60.859375 -91.082031 60.984375 -90.71875 C 61.117188 -90.363281 61.457031 -89.878906 62 -89.265625 C 62.613281 -88.554688 62.921875 -84.519531 62.921875 -77.15625 L 63.0625 -75.03125 L 65.84375 -76.09375 C 67.707031 -76.894531 68.816406 -77.472656 69.171875 -77.828125 C 69.703125 -78.179688 70.429688 -78.332031 71.359375 -78.28125 C 72.296875 -78.238281 72.988281 -78 73.4375 -77.5625 C 74.050781 -77.03125 74.710938 -76.71875 75.421875 -76.625 C 76.140625 -76.625 76.828125 -76.445312 77.484375 -76.09375 C 78.148438 -75.738281 78.484375 -75.382812 78.484375 -75.03125 C 78.484375 -74.675781 78.082031 -74.363281 77.28125 -74.09375 C 76.488281 -73.832031 76.09375 -73.566406 76.09375 -73.296875 C 76.09375 -73.035156 76.3125 -73.015625 76.75 -73.234375 C 77.195312 -73.453125 77.863281 -73.609375 78.75 -73.703125 C 79.195312 -73.785156 79.597656 -73.984375 79.953125 -74.296875 C 80.304688 -74.609375 80.796875 -75.34375 81.421875 -76.5 C 83.804688 -80.394531 85 -83.140625 85 -84.734375 C 85 -85.085938 85.3125 -85.800781 85.9375 -86.875 C 86.289062 -87.757812 86.664062 -88.863281 87.0625 -90.1875 C 87.46875 -91.519531 87.601562 -92.253906 87.46875 -92.390625 C 87.332031 -92.523438 87.21875 -92.898438 87.125 -93.515625 C 87.039062 -94.140625 86.78125 -94.628906 86.34375 -94.984375 C 86.070312 -95.160156 85.9375 -95.269531 85.9375 -95.3125 C 85.9375 -95.363281 86.070312 -95.390625 86.34375 -95.390625 C 86.78125 -95.390625 87 -95.519531 87 -95.78125 C 87 -96.050781 86.664062 -96.1875 86 -96.1875 C 85.332031 -96.1875 85 -96.316406 85 -96.578125 C 85 -96.847656 85.195312 -96.984375 85.59375 -96.984375 C 86 -96.984375 86.203125 -97.070312 86.203125 -97.25 Z M 86.203125 -97.25 "/></g></g></g></g></g></svg>